<svg version="1.1" id="Layer_1" xmlns="http://www.w3.org/2000/svg" xmlns:xlink="http://www.w3.org/1999/xlink" x="0px" y="0px"
	 width="100%" viewBox="0 0 500 500" enable-background="new 0 0 500 500" xml:space="preserve">
<path fill="#FFFDFA" opacity="1.000000" stroke="none" 
	d="
M286.000000,501.000000 
	C190.666687,501.000000 95.833382,501.000000 1.000051,501.000000 
	C1.000034,334.333405 1.000034,167.666794 1.000017,1.000140 
	C167.666565,1.000094 334.333130,1.000094 500.999756,1.000047 
	C500.999847,167.666519 500.999847,334.333038 500.999939,500.999786 
	C429.500000,501.000000 358.000000,501.000000 286.000000,501.000000 
M31.863625,268.664825 
	C32.323895,273.302490 32.570606,277.972931 33.277435,282.572723 
	C40.408421,328.978485 59.976704,369.292542 92.387070,403.366058 
	C154.760757,468.940430 254.126480,489.974365 336.821503,453.285767 
	C413.030396,419.474884 457.455750,360.385071 469.066071,277.649750 
	C475.581329,231.222198 466.698822,187.065979 444.197723,146.049973 
	C395.531525,57.338936 296.327545,13.567366 198.106506,37.584656 
	C148.566910,49.698223 107.893951,76.290169 76.846214,116.849518 
	C42.782406,161.348923 27.825838,211.778564 31.863625,268.664825 
z"/>
<path fill="#010101" opacity="1.000000" stroke="none" 
	d="
M31.827904,268.205231 
	C27.825838,211.778564 42.782406,161.348923 76.846214,116.849518 
	C107.893951,76.290169 148.566910,49.698223 198.106506,37.584656 
	C296.327545,13.567366 395.531525,57.338936 444.197723,146.049973 
	C466.698822,187.065979 475.581329,231.222198 469.066071,277.649750 
	C457.455750,360.385071 413.030396,419.474884 336.821503,453.285767 
	C254.126480,489.974365 154.760757,468.940430 92.387070,403.366058 
	C59.976704,369.292542 40.408421,328.978485 33.277435,282.572723 
	C32.570606,277.972931 32.323895,273.302490 31.827904,268.205231 
M249.902390,208.258224 
	C246.957245,204.986069 238.868622,203.853882 236.037018,206.317459 
	C233.394547,208.616486 233.978561,215.408875 237.052826,219.479691 
	C237.015564,219.920883 236.978302,220.362061 236.124023,220.950104 
	C233.939102,224.672577 234.784103,227.465118 238.583145,228.051239 
	C241.144287,228.446381 243.940735,228.594009 246.392334,227.945969 
	C247.880951,227.552475 249.787323,225.534805 249.958878,224.066040 
	C250.265808,221.438431 249.403931,218.674316 249.420959,215.385071 
	C252.170456,213.537216 253.597244,211.525665 249.902390,208.258224 
M176.887863,100.133583 
	C176.775818,98.550209 176.663773,96.966835 176.554016,95.415565 
	C172.114655,95.415565 168.197861,95.415565 164.128326,95.415565 
	C164.128326,124.072403 164.128326,152.417328 164.128326,180.820786 
	C165.955154,180.939667 167.442734,181.036469 168.994354,181.987656 
	C169.126892,183.562531 169.259445,185.137405 169.416107,186.998779 
	C171.772858,186.998779 173.583527,186.998581 175.394211,186.998810 
	C182.029953,186.999695 182.032379,186.999756 182.032684,180.228653 
	C182.033768,155.786575 182.033096,131.344482 182.033081,106.902397 
	C182.033081,105.126266 182.033081,103.350136 182.033081,101.331581 
	C179.940918,101.188423 178.480103,101.088470 176.887863,100.133583 
M261.050110,168.796692 
	C261.018097,165.810211 260.961304,162.823746 260.958405,159.837234 
	C260.947479,148.539749 260.956390,148.584625 272.047974,147.995102 
	C273.314758,147.927765 275.235199,147.342651 275.662781,146.436310 
	C277.982788,141.518936 275.481110,137.364105 270.122040,136.040100 
	C270.040527,134.614746 269.959015,133.189392 269.862274,131.498093 
	C266.709198,131.355042 263.820221,131.223969 260.940857,130.141083 
	C260.944061,126.157013 261.324097,122.128227 260.857941,118.199852 
	C260.232758,112.931343 262.331940,111.752106 267.250061,111.949165 
	C276.576141,112.322830 276.590668,112.048721 275.882111,102.487587 
	C275.860168,102.191795 275.595001,101.914047 275.288940,101.337029 
	C274.008881,101.215340 272.555786,101.077194 271.006439,100.075157 
	C270.896057,98.499397 270.785675,96.923645 270.683533,95.465561 
	C260.928101,95.465561 251.699905,95.465561 242.327774,95.465561 
	C242.327774,124.053665 242.327774,152.278412 242.327774,180.719330 
	C244.327927,180.891144 246.113953,181.044556 247.934052,182.048187 
	C248.072571,183.611664 248.211075,185.175125 248.337036,186.596954 
	C258.158386,186.596954 267.362823,186.596954 276.670410,186.596954 
	C276.670410,182.955307 276.670410,179.718536 276.670410,176.016098 
	C274.887482,176.016098 273.431122,176.016098 271.782593,175.165817 
	C271.666901,173.585373 271.551208,172.004913 271.381165,169.681885 
	C267.835205,169.681885 264.495514,169.681885 261.050110,168.796692 
M152.336746,149.957520 
	C152.205765,148.532150 152.074768,147.106766 151.938980,145.629120 
	C147.751175,145.629120 144.000061,145.629120 140.052444,145.629120 
	C139.722336,152.024063 139.504089,158.130524 139.051880,164.219635 
	C138.825867,167.262878 138.186172,170.284927 134.081619,169.713654 
	C134.049255,153.125763 133.989365,136.537842 134.006149,119.950012 
	C134.009811,116.336792 134.523956,112.873009 139.179825,112.827057 
	C139.479538,118.134018 139.779251,123.440971 140.077591,128.723572 
	C142.026535,128.870773 143.488113,128.981155 144.985794,129.952988 
	C145.112015,131.528351 145.238235,133.103714 145.352753,134.532959 
	C149.823135,134.532959 153.703217,134.532959 158.431351,134.532959 
	C157.858597,127.295456 157.909805,120.441284 156.554688,113.877464 
	C155.841293,110.421913 152.670776,107.473648 150.206787,103.766243 
	C144.735977,95.390411 138.744141,92.757393 129.554565,94.690964 
	C121.700386,96.343544 116.570602,101.335976 116.071693,110.996170 
	C115.181068,128.241180 115.207703,145.552246 115.437958,162.827881 
	C115.539864,170.473801 119.127998,176.900192 126.023003,181.757980 
	C133.061066,191.190231 149.158096,190.100555 154.635498,179.832397 
	C159.456421,170.794876 157.738998,161.141663 157.853516,151.500031 
	C155.728516,151.221558 154.099167,151.008041 152.336746,149.957520 
M377.356171,100.506218 
	C377.015991,98.777542 376.675812,97.048866 376.342102,95.352997 
	C370.492218,95.352997 365.061951,95.352997 359.229736,95.352997 
	C355.161438,123.854889 351.119843,152.169769 347.034576,180.790482 
	C349.352020,180.919952 351.144257,181.020065 352.999146,181.979080 
	C353.106384,183.546127 353.213593,185.113190 353.326080,186.757217 
	C354.846680,186.862457 355.820557,186.971725 356.796204,186.990829 
	C365.304901,187.157349 365.304962,187.152542 366.021271,178.640991 
	C366.575073,172.060318 366.731903,171.917603 373.471069,171.959152 
	C374.297424,171.964249 375.123596,172.004807 376.124512,172.820679 
	C376.558533,175.393570 376.992554,177.966476 377.458771,180.730286 
	C379.038269,180.874710 380.482330,181.006760 382.001465,181.937546 
	C383.014984,187.443146 386.492554,188.597778 394.821808,186.066818 
	C394.736572,185.147034 394.697296,184.175903 394.550232,183.221390 
	C393.044006,173.446198 391.474915,163.680466 390.011719,153.898895 
	C387.572601,137.593002 385.216278,121.274727 382.779022,104.968552 
	C382.363525,102.188873 381.077271,100.291290 377.356171,100.506218 
M263.951355,350.831390 
	C273.421539,385.884827 282.891754,420.938263 292.361969,455.991699 
	C292.945007,455.967621 293.528046,455.943573 294.111115,455.919495 
	C294.331390,454.872223 294.900787,453.758911 294.717072,452.788116 
	C293.172302,444.624878 291.488220,436.488007 289.848755,428.342651 
	C288.176361,420.033875 287.290985,411.460754 284.610016,403.491516 
	C282.068481,395.936768 283.065582,388.132233 280.566833,380.418182 
	C276.246155,367.079712 274.682800,352.848053 272.497620,338.844513 
	C272.676361,338.563446 272.855072,338.282379 273.411469,337.134857 
	C273.411469,335.196228 273.411469,333.257599 273.411469,331.246643 
	C261.036072,331.246643 249.113373,331.246643 236.976242,331.246643 
	C237.254745,335.883118 238.304749,340.371124 237.624725,344.579590 
	C235.875931,355.402435 233.444077,366.119659 231.100204,376.838654 
	C230.396698,380.055969 228.809830,383.082977 228.139206,386.303711 
	C227.618683,388.803558 228.247437,391.538208 227.756592,394.049530 
	C225.013931,408.081512 222.063126,422.072723 219.232285,436.087738 
	C218.036560,442.007538 216.960098,447.951447 215.829422,453.884399 
	C216.525574,454.086212 217.221725,454.287994 217.917892,454.489807 
	C221.415558,446.676453 222.769440,438.090210 225.140350,429.883728 
	C227.584229,421.424683 230.153198,412.974915 231.999573,404.377686 
	C233.820084,395.900757 237.761230,388.138123 239.164215,379.470642 
	C240.575150,370.754028 243.617432,362.301483 245.944855,353.733246 
	C247.859970,370.923706 248.936142,387.950226 249.979340,404.978760 
	C251.068909,422.764130 252.082291,440.554504 253.285217,458.332092 
	C253.378448,459.709686 254.704590,461.003845 255.457672,462.336792 
	C255.966583,462.092499 256.475525,461.848206 256.984436,461.603912 
	C258.905487,424.371307 260.826508,387.138733 263.387024,349.786865 
	C263.585022,349.875183 263.783020,349.963531 263.951355,350.831390 
M195.030106,181.957458 
	C195.161713,183.536179 195.293304,185.114914 195.450073,186.995529 
	C197.800705,186.995529 199.642975,186.773453 201.412277,187.038483 
	C206.133057,187.745560 207.309464,185.703918 207.162796,181.218796 
	C206.842422,171.422272 207.013947,161.608154 207.083847,151.801926 
	C207.095062,150.228134 207.619537,148.658005 208.135590,147.781052 
	C211.573410,157.485199 215.138672,167.147186 218.371872,176.919037 
	C219.349152,179.872757 220.738663,181.461411 223.938492,182.019501 
	C225.175095,187.581406 226.388168,188.081879 234.558868,186.277145 
	C234.558868,158.027786 234.558868,129.736603 234.558868,101.298576 
	C232.536835,101.139519 230.893188,101.010223 229.133850,100.021240 
	C229.012451,98.453789 228.891068,96.886345 228.786819,95.540405 
	C224.668320,95.540405 221.123840,95.540405 217.570862,95.540405 
	C217.570862,111.242470 217.570862,126.510429 217.570862,143.203583 
	C212.486206,128.927475 207.970947,115.953041 203.235046,103.059647 
	C200.179489,94.740982 200.034317,94.790550 191.319962,95.235443 
	C191.029465,95.250282 190.751114,95.502792 190.235626,95.760025 
	C190.235626,124.011223 190.235626,152.361145 190.235626,180.813675 
	C191.981842,180.921524 193.462418,181.012970 195.030106,181.957458 
M338.109955,100.032196 
	C337.990723,98.468422 337.871490,96.904648 337.734497,95.108223 
	C333.447235,95.108223 329.642181,95.310463 325.869934,95.045555 
	C322.735016,94.825417 321.526764,96.006294 321.000244,99.043480 
	C318.404266,114.017662 315.615356,128.958405 312.323486,143.461258 
	C311.868774,141.702377 311.320801,139.961655 310.974609,138.181671 
	C308.888275,127.454269 306.915375,116.704247 304.743591,105.994423 
	C304.224365,103.434029 304.125336,99.878952 299.267181,100.634239 
	C298.088440,98.794693 297.129761,95.603531 295.689667,95.369003 
	C291.367798,94.665222 286.858032,95.115601 282.237671,95.115601 
	C282.237671,124.038620 282.237671,152.375198 282.237671,180.819931 
	C283.983246,180.919266 285.463806,181.003540 287.050385,181.939438 
	C287.184174,183.514755 287.317932,185.090088 287.441711,186.547394 
	C291.541565,186.547394 295.072540,186.547394 298.976349,186.547394 
	C298.976349,179.024765 298.885284,171.924866 299.014709,164.828995 
	C299.079651,161.268982 299.546051,157.716278 299.963348,154.957886 
	C301.301758,161.742661 302.874451,168.492706 303.887146,175.325775 
	C304.457642,179.175354 305.847809,181.349136 309.959106,181.896423 
	C309.665588,185.365463 310.870575,187.042206 314.738403,187.025833 
	C318.575439,187.009583 321.296692,186.805130 322.043457,182.005173 
	C323.043732,175.575867 324.847839,169.271622 326.328186,163.859558 
	C326.328186,169.462158 326.328186,175.064758 326.328186,180.757675 
	C328.633331,180.919281 330.278656,181.034622 331.974091,182.004196 
	C332.105530,183.578934 332.236969,185.153656 332.352234,186.534424 
	C336.507080,186.534424 340.055969,186.534424 343.549438,186.534424 
	C343.549438,157.856598 343.549438,129.646835 343.549438,101.289711 
	C341.515839,101.138725 339.868439,101.016418 338.109955,100.032196 
M284.817535,312.626984 
	C292.596954,310.769196 298.607178,315.156189 304.733337,319.145416 
	C304.733337,308.668701 304.733337,299.006409 304.733337,288.630859 
	C298.217255,293.475067 291.851868,296.774384 284.292450,294.016724 
	C283.453125,292.638214 282.613800,291.259705 281.350372,289.184662 
	C281.463989,289.039520 282.432312,287.940186 283.248260,286.737488 
	C288.615906,278.825623 289.079834,270.512634 284.384583,262.280670 
	C279.653229,253.985428 272.073334,250.008148 262.632416,251.209167 
	C253.564087,252.362778 247.092316,257.556671 243.940201,266.391632 
	C242.206970,271.249664 241.687103,271.347961 237.871994,267.343292 
	C232.305298,261.500000 224.665329,259.673981 217.369278,262.774750 
	C210.348694,265.758423 206.269638,271.106781 205.903763,278.858887 
	C205.524200,286.901001 209.744949,293.582153 216.904800,296.827942 
	C218.057343,297.350403 219.097473,298.120789 220.189560,298.776581 
	C219.995102,299.236725 219.800659,299.696899 219.606201,300.157074 
	C216.137085,299.412018 212.667969,298.666962 208.325363,297.734314 
	C210.371140,301.947906 211.924423,305.147156 213.362061,308.108185 
	C215.686905,307.288696 217.503967,306.648193 219.958176,305.783081 
	C219.958176,314.169006 219.958176,321.613281 219.958176,329.102142 
	C222.057709,329.457550 223.794922,329.751617 225.735123,330.080048 
	C225.376617,331.849274 225.084427,333.291260 224.753036,334.926727 
	C220.052338,335.687103 215.498947,336.713959 210.892624,337.086761 
	C206.323105,337.456573 201.700272,337.167664 196.757004,337.167664 
	C196.966156,340.331787 197.089935,342.204498 197.221375,344.193115 
	C198.670975,344.077423 199.534882,344.150299 200.312134,343.924652 
	C208.644272,341.505920 216.978821,339.091522 225.259155,336.504547 
	C226.056961,336.255280 226.986816,334.869812 227.015656,333.984436 
	C227.149887,329.863831 229.499054,329.380157 232.959167,329.470947 
	C240.949005,329.680542 248.948090,329.537476 256.943420,329.537476 
	C265.907898,329.537445 274.872406,329.537476 284.071808,329.537476 
	C284.071808,323.770477 284.071808,318.486511 284.817535,312.626984 
M254.047394,209.696930 
	C254.047394,215.643600 254.047394,221.590256 254.047394,227.520859 
	C256.550293,228.292160 258.678925,228.948135 261.185822,229.720688 
	C262.073395,225.616394 260.059174,220.198044 266.425262,219.546219 
	C266.102570,218.074875 266.149414,216.342957 265.349274,215.208313 
	C264.607025,214.155762 262.960205,213.741119 261.711670,213.045578 
	C263.056732,212.212524 264.516479,211.514954 265.710663,210.503723 
	C266.673462,209.688461 267.977325,208.443832 267.903870,207.483475 
	C267.837463,206.615433 266.181458,205.325500 265.102112,205.186462 
	C262.493256,204.850342 259.802856,205.214081 257.162018,205.040970 
	C254.253723,204.850327 253.854721,206.484451 254.047394,209.696930 
z"/>
<path fill="#C5C5C5" opacity="1.000000" stroke="none" 
	d="
M284.071808,313.202515 
	C284.071808,318.486511 284.071808,323.770477 284.071808,329.537476 
	C274.872406,329.537476 265.907898,329.537445 256.943420,329.537476 
	C248.948090,329.537476 240.949005,329.680542 232.959167,329.470947 
	C229.499054,329.380157 227.149887,329.863831 227.015656,333.984436 
	C226.986816,334.869812 226.056961,336.255280 225.259155,336.504547 
	C216.978821,339.091522 208.644272,341.505920 200.312134,343.924652 
	C199.534882,344.150299 198.670975,344.077423 197.221375,344.193115 
	C197.089935,342.204498 196.966156,340.331787 196.757004,337.167664 
	C201.700272,337.167664 206.323105,337.456573 210.892624,337.086761 
	C215.498947,336.713959 220.052338,335.687103 224.753036,334.926727 
	C225.084427,333.291260 225.376617,331.849274 225.735123,330.080048 
	C223.794922,329.751617 222.057709,329.457550 219.958176,329.102142 
	C219.958176,321.613281 219.958176,314.169006 219.958176,305.783081 
	C217.503967,306.648193 215.686905,307.288696 213.362061,308.108185 
	C211.924423,305.147156 210.371140,301.947906 208.325363,297.734314 
	C212.667969,298.666962 216.137085,299.412018 219.606201,300.157074 
	C219.800659,299.696899 219.995102,299.236725 220.189560,298.776581 
	C219.097473,298.120789 218.057343,297.350403 216.904800,296.827942 
	C209.744949,293.582153 205.524200,286.901001 205.903763,278.858887 
	C206.269638,271.106781 210.348694,265.758423 217.369278,262.774750 
	C224.665329,259.673981 232.305298,261.500000 237.871994,267.343292 
	C241.687103,271.347961 242.206970,271.249664 243.940201,266.391632 
	C247.092316,257.556671 253.564087,252.362778 262.632416,251.209167 
	C272.073334,250.008148 279.653229,253.985428 284.384583,262.280670 
	C289.079834,270.512634 288.615906,278.825623 283.248260,286.737488 
	C282.432312,287.940186 281.463989,289.039520 281.350372,289.184662 
	C282.613800,291.259705 283.453125,292.638214 284.155823,294.889984 
	C284.036743,301.576324 284.054260,307.389435 284.071808,313.202515 
M258.430450,263.636322 
	C253.830048,267.028870 252.462433,271.631195 254.274704,276.846771 
	C255.878571,281.462524 259.404907,284.071075 264.496826,284.188507 
	C269.554871,284.305145 273.131226,281.978424 275.127319,277.434631 
	C277.133362,272.868195 276.339508,268.547119 272.834503,265.039856 
	C268.816101,261.018829 264.069641,260.767426 258.430450,263.636322 
M233.216461,280.814758 
	C233.574753,275.047546 231.302399,271.225037 226.812393,270.041992 
	C222.681396,268.953522 218.270981,270.861542 216.270340,274.602692 
	C213.896606,279.041565 215.536758,284.595367 219.931183,286.998993 
	C225.067993,289.808655 230.025818,287.755676 233.216461,280.814758 
M241.964600,290.887604 
	C244.520615,290.887604 247.076645,290.887604 250.482224,290.887604 
	C248.967529,288.946777 248.194168,287.440155 246.973190,286.541962 
	C245.840591,285.708801 244.229889,285.525574 242.829712,285.056183 
	C242.257858,286.990906 241.686005,288.925598 241.964600,290.887604 
z"/>
<path fill="#DD1400" opacity="1.000000" stroke="none" 
	d="
M331.923981,181.149963 
	C330.278656,181.034622 328.633331,180.919281 326.328186,180.757675 
	C326.328186,175.064758 326.328186,169.462158 326.537781,163.056091 
	C326.747375,149.252563 326.747375,136.252518 326.747375,123.252457 
	C322.983063,140.547440 319.504089,157.865555 316.533112,175.270370 
	C315.794128,179.599518 314.232666,181.479340 309.959717,181.063110 
	C305.847809,181.349136 304.457642,179.175354 303.887146,175.325775 
	C302.874451,168.492706 301.301758,161.742661 299.945679,154.150360 
	C297.815460,143.263824 295.702942,133.184845 293.590424,123.105865 
	C293.327820,123.129601 293.065247,123.153328 292.802643,123.177063 
	C292.802643,142.329697 292.802643,161.482330 292.802643,180.767899 
	C290.557709,180.890488 288.751038,180.989151 286.944366,181.087799 
	C285.463806,181.003540 283.983246,180.919266 282.237671,180.819931 
	C282.237671,152.375198 282.237671,124.038620 282.237671,95.115601 
	C286.858032,95.115601 291.367798,94.665222 295.689667,95.369003 
	C297.129761,95.603531 298.088440,98.794693 299.513672,101.365509 
	C303.143829,120.107986 306.527496,138.119202 309.911133,156.130402 
	C310.186493,156.099182 310.461853,156.067947 310.737213,156.036713 
	C311.456299,151.994781 312.175385,147.952866 312.894501,143.910934 
	C315.615356,128.958405 318.404266,114.017662 321.000244,99.043480 
	C321.526764,96.006294 322.735016,94.825417 325.869934,95.045555 
	C329.642181,95.310463 333.447235,95.108223 337.734497,95.108223 
	C337.871490,96.904648 337.990723,98.468422 338.101349,100.935791 
	C338.092743,128.104080 338.092743,154.368774 338.092743,180.739532 
	C335.547180,180.908905 333.735596,181.029434 331.923981,181.149963 
z"/>
<path fill="#DC1400" opacity="1.000000" stroke="none" 
	d="
M223.887665,181.234314 
	C220.738663,181.461411 219.349152,179.872757 218.371872,176.919037 
	C215.138672,167.147186 211.573410,157.485199 208.033936,147.056946 
	C205.902618,140.859283 203.872925,135.385712 201.582642,129.209396 
	C201.582642,146.953369 201.582642,163.774719 201.582642,180.813995 
	C199.200928,180.918182 197.071960,181.011307 194.942993,181.104431 
	C193.462418,181.012970 191.981842,180.921524 190.235626,180.813675 
	C190.235626,152.361145 190.235626,124.011223 190.235626,95.760025 
	C190.751114,95.502792 191.029465,95.250282 191.319962,95.235443 
	C200.034317,94.790550 200.179489,94.740982 203.235046,103.059647 
	C207.970947,115.953041 212.486206,128.927475 217.570862,143.203583 
	C217.570862,126.510429 217.570862,111.242470 217.570862,95.540405 
	C221.123840,95.540405 224.668320,95.540405 228.786819,95.540405 
	C228.891068,96.886345 229.012451,98.453789 229.123978,100.924301 
	C229.114105,128.120468 229.114105,154.413574 229.114105,180.697891 
	C226.843567,180.930923 225.365616,181.082611 223.887665,181.234314 
z"/>
<path fill="#C2C2C2" opacity="1.000000" stroke="none" 
	d="
M271.962769,338.991089 
	C274.682800,352.848053 276.246155,367.079712 280.566833,380.418182 
	C283.065582,388.132233 282.068481,395.936768 284.610016,403.491516 
	C287.290985,411.460754 288.176361,420.033875 289.848755,428.342651 
	C291.488220,436.488007 293.172302,444.624878 294.717072,452.788116 
	C294.900787,453.758911 294.331390,454.872223 294.111115,455.919495 
	C293.528046,455.943573 292.945007,455.967621 292.361969,455.991699 
	C282.891754,420.938263 273.421539,385.884827 263.953674,350.155640 
	C263.556213,349.124725 263.156403,348.769562 262.756592,348.414398 
	C262.753571,348.911652 262.750580,349.408875 262.747559,349.906128 
	C260.826508,387.138733 258.905487,424.371307 256.984436,461.603912 
	C256.475525,461.848206 255.966583,462.092499 255.457672,462.336792 
	C254.704590,461.003845 253.378448,459.709686 253.285217,458.332092 
	C252.082291,440.554504 251.068909,422.764130 249.979340,404.978760 
	C248.936142,387.950226 247.859970,370.923706 245.944855,353.733246 
	C243.617432,362.301483 240.575150,370.754028 239.164215,379.470642 
	C237.761230,388.138123 233.820084,395.900757 231.999573,404.377686 
	C230.153198,412.974915 227.584229,421.424683 225.140350,429.883728 
	C222.769440,438.090210 221.415558,446.676453 217.917892,454.489807 
	C217.221725,454.287994 216.525574,454.086212 215.829422,453.884399 
	C216.960098,447.951447 218.036560,442.007538 219.232285,436.087738 
	C222.063126,422.072723 225.013931,408.081512 227.756592,394.049530 
	C228.247437,391.538208 227.618683,388.803558 228.139206,386.303711 
	C228.809830,383.082977 230.396698,380.055969 231.100204,376.838654 
	C233.444077,366.119659 235.875931,355.402435 237.624725,344.579590 
	C238.304749,340.371124 237.254745,335.883118 236.976242,331.246643 
	C249.113373,331.246643 261.036072,331.246643 273.411469,331.246643 
	C273.411469,333.257599 273.411469,335.196228 272.772491,337.587189 
	C271.169006,338.648285 270.204498,339.257080 269.005066,339.509094 
	C267.214783,339.056305 265.659485,338.960327 263.561646,338.830841 
	C267.748749,354.095428 271.732880,368.620026 275.717010,383.144592 
	C276.329956,382.985046 276.942902,382.825470 277.555878,382.665894 
	C274.814148,368.592468 272.072418,354.519012 269.709839,340.105499 
	C270.713562,339.507294 271.338165,339.249176 271.962769,338.991089 
M231.268661,393.073700 
	C231.003860,394.088715 230.739044,395.103699 230.474228,396.118713 
	C230.891342,396.170593 231.308456,396.222473 231.725555,396.274323 
	C231.839767,395.198334 231.953979,394.122345 232.503204,392.727173 
	C232.360931,392.134399 232.218643,391.541656 232.422424,390.432587 
	C232.780746,389.819855 233.139053,389.207123 233.497375,388.594421 
	C232.929062,388.495728 232.360748,388.397064 231.792435,388.298370 
	C231.826660,389.231476 231.860886,390.164612 231.949326,391.704773 
	C231.939941,392.111511 231.930557,392.518219 231.268661,393.073700 
M245.186462,338.847412 
	C242.350388,338.262634 241.494278,339.760345 241.013565,342.302704 
	C239.191483,351.939270 237.154251,361.534912 235.243484,371.155029 
	C234.467789,375.060486 233.809906,378.989319 233.098419,382.907532 
	C233.562012,383.040894 234.025604,383.174255 234.489182,383.307617 
	C235.008423,381.888611 235.624603,380.496735 236.030380,379.045990 
	C237.999496,372.006012 240.035461,364.981079 241.807861,357.890839 
	C243.371948,351.633881 244.619675,345.297852 246.793381,339.002533 
	C247.841629,338.993103 248.889893,338.983673 249.868515,339.913849 
	C250.554901,354.442566 251.241302,368.971252 251.943817,383.841064 
	C254.168991,383.736328 255.722412,383.663177 257.556580,383.576843 
	C258.321655,368.531738 259.066864,353.877594 259.826355,338.942749 
	C256.205780,338.942749 253.083771,338.942749 249.543167,338.431000 
	C248.363800,338.618195 247.184433,338.805420 245.186462,338.847412 
M256.047546,412.342133 
	C256.444550,404.613770 256.841522,396.885406 257.261017,388.718964 
	C255.283539,388.931213 253.917023,389.077881 252.433884,389.237091 
	C253.062149,398.749908 253.659500,407.794739 254.256866,416.839569 
	C254.686569,416.836639 255.116272,416.833710 255.545975,416.830780 
	C255.704086,415.636932 255.862183,414.443085 256.047546,412.342133 
M278.506287,390.121918 
	C278.162872,390.512390 277.819458,390.902863 277.476044,391.293335 
	C278.022461,391.438507 278.568878,391.583679 279.115295,391.728851 
	C279.113251,391.235809 279.111206,390.742767 278.506287,390.121918 
M254.301376,428.343445 
	C254.659653,428.969482 255.017929,429.595551 255.376190,430.221619 
	C255.675156,429.948395 255.974121,429.675171 256.273102,429.401947 
	C255.643280,428.853485 255.013474,428.305023 254.301376,428.343445 
M229.383179,398.725800 
	C229.609650,399.227631 229.820969,399.738098 230.092392,400.214294 
	C230.113266,400.250885 230.557953,400.045868 230.805649,399.953156 
	C230.473679,399.423798 230.141724,398.894440 229.383179,398.725800 
M280.776245,402.602997 
	C281.122070,402.087219 281.467865,401.571411 281.813690,401.055664 
	C281.570801,400.955048 281.135071,400.737122 281.114166,400.771515 
	C280.830383,401.237915 280.604126,401.739380 280.776245,402.602997 
M227.922150,409.473938 
	C227.776749,409.230957 227.631363,408.987976 227.485962,408.744995 
	C227.351227,408.995422 227.054062,409.312592 227.122650,409.479462 
	C227.209595,409.691071 227.593628,409.780579 227.922150,409.473938 
M283.260559,410.810059 
	C283.375671,410.968323 283.490784,411.126556 283.605927,411.284790 
	C283.582428,411.064270 283.558929,410.843750 283.260559,410.810059 
M261.516754,338.410187 
	C261.516754,338.410187 261.586700,338.523682 261.516754,338.410187 
z"/>
<path fill="#DB1400" opacity="1.000000" stroke="none" 
	d="
M352.936523,181.120193 
	C351.144257,181.020065 349.352020,180.919952 347.034576,180.790482 
	C351.119843,152.169769 355.161438,123.854889 359.229736,95.352997 
	C365.061951,95.352997 370.492218,95.352997 376.342102,95.352997 
	C376.675812,97.048866 377.015991,98.777542 377.582458,101.269638 
	C381.647736,128.189072 385.486755,154.345078 389.364655,180.766037 
	C386.212006,180.924026 384.069214,181.031418 381.926392,181.138794 
	C380.482330,181.006760 379.038269,180.874710 377.458771,180.730286 
	C376.992554,177.966476 376.558533,175.393570 376.066895,171.999268 
	C376.338715,167.169388 374.672516,165.340073 370.509308,165.850128 
	C368.550385,166.090118 366.530670,166.001785 364.551605,165.868103 
	C361.967896,165.693558 361.120697,166.845886 360.961090,169.338181 
	C360.721069,173.087769 360.081848,176.811798 359.585144,180.763077 
	C357.169464,180.892822 355.053009,181.006516 352.936523,181.120193 
M372.018616,139.206757 
	C370.850403,131.186478 369.682220,123.166199 368.514008,115.145927 
	C368.208435,115.134682 367.902832,115.123436 367.597260,115.112190 
	C366.021271,128.255280 364.445251,141.398376 362.817688,154.971436 
	C365.431641,154.971436 367.223907,154.971436 369.852722,155.107986 
	C371.174774,154.984161 372.496857,154.860336 373.936554,154.725479 
	C373.205872,149.379990 372.568329,144.716080 372.018616,139.206757 
z"/>
<path fill="#DC1400" opacity="1.000000" stroke="none" 
	d="
M144.949707,129.091553 
	C143.488113,128.981155 142.026535,128.870773 140.077591,128.723572 
	C139.779251,123.440971 139.479538,118.134018 139.113495,112.023888 
	C138.593643,108.188454 137.611298,105.731247 133.837219,105.857346 
	C130.055695,105.983696 129.319153,108.674629 128.881348,111.587685 
	C128.537750,113.873886 128.150955,116.183098 128.136505,118.484314 
	C128.061325,130.449722 128.029877,142.416458 128.138428,154.381332 
	C128.172882,158.178482 128.160248,162.122131 129.189270,165.705811 
	C129.747482,167.649857 132.452103,168.977554 134.188538,170.583282 
	C138.186172,170.284927 138.825867,167.262878 139.051880,164.219635 
	C139.504089,158.130524 139.722336,152.024063 140.052444,145.629120 
	C144.000061,145.629120 147.751175,145.629120 151.938980,145.629120 
	C152.074768,147.106766 152.205765,148.532150 152.286255,150.846985 
	C152.208572,153.717529 152.110535,155.700592 152.165390,157.679398 
	C152.607758,173.641418 147.123642,185.403732 125.960709,181.058792 
	C119.127998,176.900192 115.539864,170.473801 115.437958,162.827881 
	C115.207703,145.552246 115.181068,128.241180 116.071693,110.996170 
	C116.570602,101.335976 121.700386,96.343544 129.554565,94.690964 
	C138.744141,92.757393 144.735977,95.390411 150.472031,104.437553 
	C151.347275,112.902229 151.957275,120.695602 152.582520,128.683685 
	C149.201279,128.864365 147.075500,128.977966 144.949707,129.091553 
z"/>
<path fill="#DB1400" opacity="1.000000" stroke="none" 
	d="
M247.899994,181.197968 
	C246.113953,181.044556 244.327927,180.891144 242.327774,180.719330 
	C242.327774,152.278412 242.327774,124.053665 242.327774,95.465561 
	C251.699905,95.465561 260.928101,95.465561 270.683533,95.465561 
	C270.785675,96.923645 270.896057,98.499397 271.002808,100.948578 
	C271.506104,105.325073 269.963440,106.559425 266.520721,106.236107 
	C263.895813,105.989594 261.167358,105.863007 258.605621,106.336197 
	C257.301788,106.577034 255.306671,108.216599 255.260818,109.293571 
	C254.959869,116.362244 255.105682,123.449944 255.105682,131.092896 
	C257.393768,131.092896 259.162476,131.092896 260.931213,131.092896 
	C263.820221,131.223969 266.709198,131.355042 269.862274,131.498093 
	C269.959015,133.189392 270.040527,134.614746 270.100342,136.909912 
	C270.564514,141.257767 269.077271,142.569214 265.599335,142.224380 
	C263.135468,141.980118 260.587097,141.935394 258.155518,142.312042 
	C257.051880,142.483017 255.295578,143.868362 255.272171,144.741364 
	C255.051315,152.973114 255.140854,161.213196 255.140854,169.681885 
	C257.577667,169.681885 259.366730,169.681885 261.155823,169.681885 
	C264.495514,169.681885 267.835205,169.681885 271.381165,169.681885 
	C271.551208,172.004913 271.666901,173.585373 271.820770,176.013962 
	C272.287445,180.074203 270.961090,181.170380 267.685425,181.081451 
	C261.096191,180.902588 254.495789,181.135162 247.899994,181.197968 
z"/>
<path fill="#DB1400" opacity="1.000000" stroke="none" 
	d="
M168.930298,181.133270 
	C167.442734,181.036469 165.955154,180.939667 164.128326,180.820786 
	C164.128326,152.417328 164.128326,124.072403 164.128326,95.415565 
	C168.197861,95.415565 172.114655,95.415565 176.554016,95.415565 
	C176.663773,96.966835 176.775818,98.550209 176.905838,101.028641 
	C176.923813,128.115067 176.923813,154.306412 176.923813,180.771500 
	C173.837448,180.911179 171.383865,181.022232 168.930298,181.133270 
z"/>
<path fill="#4D0700" opacity="1.000000" stroke="none" 
	d="
M331.949036,181.577087 
	C333.735596,181.029434 335.547180,180.908905 338.092743,180.739532 
	C338.092743,154.368774 338.092743,128.104080 338.156921,101.366745 
	C339.868439,101.016418 341.515839,101.138725 343.549438,101.289711 
	C343.549438,129.646835 343.549438,157.856598 343.549438,186.534424 
	C340.055969,186.534424 336.507080,186.534424 332.352234,186.534424 
	C332.236969,185.153656 332.105530,183.578934 331.949036,181.577087 
z"/>
<path fill="#4D0700" opacity="1.000000" stroke="none" 
	d="
M223.913086,181.626907 
	C225.365616,181.082611 226.843567,180.930923 229.114105,180.697891 
	C229.114105,154.413574 229.114105,128.120468 229.181824,101.354149 
	C230.893188,101.010223 232.536835,101.139519 234.558868,101.298576 
	C234.558868,129.736603 234.558868,158.027786 234.558868,186.277145 
	C226.388168,188.081879 225.175095,187.581406 223.913086,181.626907 
z"/>
<path fill="#4E0700" opacity="1.000000" stroke="none" 
	d="
M168.962326,181.560455 
	C171.383865,181.022232 173.837448,180.911179 176.923813,180.771500 
	C176.923813,154.306412 176.923813,128.115067 176.971558,101.456108 
	C178.480103,101.088470 179.940918,101.188423 182.033081,101.331581 
	C182.033081,103.350136 182.033081,105.126266 182.033081,106.902397 
	C182.033096,131.344482 182.033768,155.786575 182.032684,180.228653 
	C182.032379,186.999756 182.029953,186.999695 175.394211,186.998810 
	C173.583527,186.998581 171.772858,186.998779 169.416107,186.998779 
	C169.259445,185.137405 169.126892,183.562531 168.962326,181.560455 
z"/>
<path fill="#C4C4C4" opacity="1.000000" stroke="none" 
	d="
M284.444672,312.914734 
	C284.054260,307.389435 284.036743,301.576324 284.045776,295.280090 
	C291.851868,296.774384 298.217255,293.475067 304.733337,288.630859 
	C304.733337,299.006409 304.733337,308.668701 304.733337,319.145416 
	C298.607178,315.156189 292.596954,310.769196 284.444672,312.914734 
z"/>
<path fill="#4F0700" opacity="1.000000" stroke="none" 
	d="
M381.963928,181.538177 
	C384.069214,181.031418 386.212006,180.924026 389.364655,180.766037 
	C385.486755,154.345078 381.647736,128.189072 377.795502,101.604607 
	C381.077271,100.291290 382.363525,102.188873 382.779022,104.968552 
	C385.216278,121.274727 387.572601,137.593002 390.011719,153.898895 
	C391.474915,163.680466 393.044006,173.446198 394.550232,183.221390 
	C394.697296,184.175903 394.736572,185.147034 394.821808,186.066818 
	C386.492554,188.597778 383.014984,187.443146 381.963928,181.538177 
z"/>
<path fill="#520700" opacity="1.000000" stroke="none" 
	d="
M134.135071,170.148468 
	C132.452103,168.977554 129.747482,167.649857 129.189270,165.705811 
	C128.160248,162.122131 128.172882,158.178482 128.138428,154.381332 
	C128.029877,142.416458 128.061325,130.449722 128.136505,118.484314 
	C128.150955,116.183098 128.537750,113.873886 128.881348,111.587685 
	C129.319153,108.674629 130.055695,105.983696 133.837219,105.857346 
	C137.611298,105.731247 138.593643,108.188454 139.027252,111.607895 
	C134.523956,112.873009 134.009811,116.336792 134.006149,119.950012 
	C133.989365,136.537842 134.049255,153.125763 134.135071,170.148468 
z"/>
<path fill="#550800" opacity="1.000000" stroke="none" 
	d="
M309.959412,181.479767 
	C314.232666,181.479340 315.794128,179.599518 316.533112,175.270370 
	C319.504089,157.865555 322.983063,140.547440 326.747375,123.252457 
	C326.747375,136.252518 326.747375,149.252563 326.527069,162.583160 
	C324.847839,169.271622 323.043732,175.575867 322.043457,182.005173 
	C321.296692,186.805130 318.575439,187.009583 314.738403,187.025833 
	C310.870575,187.042206 309.665588,185.365463 309.959412,181.479767 
z"/>
<path fill="#590800" opacity="1.000000" stroke="none" 
	d="
M286.997375,181.513611 
	C288.751038,180.989151 290.557709,180.890488 292.802643,180.767899 
	C292.802643,161.482330 292.802643,142.329697 292.802643,123.177063 
	C293.065247,123.153328 293.327820,123.129601 293.590424,123.105865 
	C295.702942,133.184845 297.815460,143.263824 299.879456,153.751556 
	C299.546051,157.716278 299.079651,161.268982 299.014709,164.828995 
	C298.885284,171.924866 298.976349,179.024765 298.976349,186.547394 
	C295.072540,186.547394 291.541565,186.547394 287.441711,186.547394 
	C287.317932,185.090088 287.184174,183.514755 286.997375,181.513611 
z"/>
<path fill="#520700" opacity="1.000000" stroke="none" 
	d="
M125.991852,181.408386 
	C147.123642,185.403732 152.607758,173.641418 152.165390,157.679398 
	C152.110535,155.700592 152.208572,153.717529 152.352798,151.265503 
	C154.099167,151.008041 155.728516,151.221558 157.853516,151.500031 
	C157.738998,161.141663 159.456421,170.794876 154.635498,179.832397 
	C149.158096,190.100555 133.061066,191.190231 125.991852,181.408386 
z"/>
<path fill="#4F0700" opacity="1.000000" stroke="none" 
	d="
M194.986542,181.530945 
	C197.071960,181.011307 199.200928,180.918182 201.582642,180.813995 
	C201.582642,163.774719 201.582642,146.953369 201.582642,129.209396 
	C203.872925,135.385712 205.902618,140.859283 207.919525,146.709503 
	C207.619537,148.658005 207.095062,150.228134 207.083847,151.801926 
	C207.013947,161.608154 206.842422,171.422272 207.162796,181.218796 
	C207.309464,185.703918 206.133057,187.745560 201.412277,187.038483 
	C199.642975,186.773453 197.800705,186.995529 195.450073,186.995529 
	C195.293304,185.114914 195.161713,183.536179 194.986542,181.530945 
z"/>
<path fill="#520700" opacity="1.000000" stroke="none" 
	d="
M261.102966,169.239288 
	C259.366730,169.681885 257.577667,169.681885 255.140854,169.681885 
	C255.140854,161.213196 255.051315,152.973114 255.272171,144.741364 
	C255.295578,143.868362 257.051880,142.483017 258.155518,142.312042 
	C260.587097,141.935394 263.135468,141.980118 265.599335,142.224380 
	C269.077271,142.569214 270.564514,141.257767 270.145935,137.334000 
	C275.481110,137.364105 277.982788,141.518936 275.662781,146.436310 
	C275.235199,147.342651 273.314758,147.927765 272.047974,147.995102 
	C260.956390,148.584625 260.947479,148.539749 260.958405,159.837234 
	C260.961304,162.823746 261.018097,165.810211 261.102966,169.239288 
z"/>
<path fill="#D51300" opacity="1.000000" stroke="none" 
	d="
M237.111801,218.817688 
	C233.978561,215.408875 233.394547,208.616486 236.037018,206.317459 
	C238.868622,203.853882 246.957245,204.986069 249.967560,208.995407 
	C247.667969,215.496841 244.546249,210.589783 241.529633,210.298111 
	C240.473343,213.002823 240.972046,214.628906 244.255386,214.927460 
	C245.865341,215.073822 247.440002,215.608398 249.030640,215.967255 
	C249.403931,218.674316 250.265808,221.438431 249.958878,224.066040 
	C249.787323,225.534805 247.880951,227.552475 246.392334,227.945969 
	C243.940735,228.594009 241.144287,228.446381 238.583145,228.051239 
	C234.784103,227.465118 233.939102,224.672577 236.933960,220.953583 
	C239.401871,221.657593 241.059830,222.358109 242.717789,223.058640 
	C243.094406,222.788895 243.471008,222.519135 243.847626,222.249374 
	C243.083176,221.179413 242.536057,219.644867 241.498199,219.159363 
	C240.254868,218.577744 238.592621,218.891617 237.111801,218.817688 
z"/>
<path fill="#540700" opacity="1.000000" stroke="none" 
	d="
M260.936035,130.616989 
	C259.162476,131.092896 257.393768,131.092896 255.105682,131.092896 
	C255.105682,123.449944 254.959869,116.362244 255.260818,109.293571 
	C255.306671,108.216599 257.301788,106.577034 258.605621,106.336197 
	C261.167358,105.863007 263.895813,105.989594 266.520721,106.236107 
	C269.963440,106.559425 271.506104,105.325073 271.050934,101.380524 
	C272.555786,101.077194 274.008881,101.215340 275.288940,101.337029 
	C275.595001,101.914047 275.860168,102.191795 275.882111,102.487587 
	C276.590668,112.048721 276.576141,112.322830 267.250061,111.949165 
	C262.331940,111.752106 260.232758,112.931343 260.857941,118.199852 
	C261.324097,122.128227 260.944061,126.157013 260.936035,130.616989 
z"/>
<path fill="#CC1200" opacity="1.000000" stroke="none" 
	d="
M254.047821,209.224106 
	C253.854721,206.484451 254.253723,204.850327 257.162018,205.040970 
	C259.802856,205.214081 262.493256,204.850342 265.102112,205.186462 
	C266.181458,205.325500 267.837463,206.615433 267.903870,207.483475 
	C267.977325,208.443832 266.673462,209.688461 265.710663,210.503723 
	C264.516479,211.514954 263.056732,212.212524 261.711670,213.045578 
	C262.960205,213.741119 264.607025,214.155762 265.349274,215.208313 
	C266.149414,216.342957 266.102570,218.074875 266.425262,219.546219 
	C260.059174,220.198044 262.073395,225.616394 261.185822,229.720688 
	C258.678925,228.948135 256.550293,228.292160 254.047394,227.520859 
	C254.047394,221.590256 254.047394,215.643600 254.047821,209.224106 
z"/>
<path fill="#510700" opacity="1.000000" stroke="none" 
	d="
M312.609009,143.686096 
	C312.175385,147.952866 311.456299,151.994781 310.737213,156.036713 
	C310.461853,156.067947 310.186493,156.099182 309.911133,156.130402 
	C306.527496,138.119202 303.143829,120.107986 299.723816,101.687225 
	C304.125336,99.878952 304.224365,103.434029 304.743591,105.994423 
	C306.915375,116.704247 308.888275,127.454269 310.974609,138.181671 
	C311.320801,139.961655 311.868774,141.702377 312.609009,143.686096 
z"/>
<path fill="#4E0700" opacity="1.000000" stroke="none" 
	d="
M352.967834,181.549637 
	C355.053009,181.006516 357.169464,180.892822 359.585144,180.763077 
	C360.081848,176.811798 360.721069,173.087769 360.961090,169.338181 
	C361.120697,166.845886 361.967896,165.693558 364.551605,165.868103 
	C366.530670,166.001785 368.550385,166.090118 370.509308,165.850128 
	C374.672516,165.340073 376.338715,167.169388 375.979553,171.603394 
	C375.123596,172.004807 374.297424,171.964249 373.471069,171.959152 
	C366.731903,171.917603 366.575073,172.060318 366.021271,178.640991 
	C365.304962,187.152542 365.304901,187.157349 356.796204,186.990829 
	C355.820557,186.971725 354.846680,186.862457 353.326080,186.757217 
	C353.213593,185.113190 353.106384,183.546127 352.967834,181.549637 
z"/>
<path fill="#4E0700" opacity="1.000000" stroke="none" 
	d="
M247.917023,181.623077 
	C254.495789,181.135162 261.096191,180.902588 267.685425,181.081451 
	C270.961090,181.170380 272.287445,180.074203 271.916870,176.439102 
	C273.431122,176.016098 274.887482,176.016098 276.670410,176.016098 
	C276.670410,179.718536 276.670410,182.955307 276.670410,186.596954 
	C267.362823,186.596954 258.158386,186.596954 248.337036,186.596954 
	C248.211075,185.175125 248.072571,183.611664 247.917023,181.623077 
z"/>
<path fill="#4D0700" opacity="1.000000" stroke="none" 
	d="
M144.967743,129.522278 
	C147.075500,128.977966 149.201279,128.864365 152.582520,128.683685 
	C151.957275,120.695602 151.347275,112.902229 150.673508,104.702591 
	C152.670776,107.473648 155.841293,110.421913 156.554688,113.877464 
	C157.909805,120.441284 157.858597,127.295456 158.431351,134.532959 
	C153.703217,134.532959 149.823135,134.532959 145.352753,134.532959 
	C145.238235,133.103714 145.112015,131.528351 144.967743,129.522278 
z"/>
<path fill="#410600" opacity="1.000000" stroke="none" 
	d="
M249.225800,215.676178 
	C247.440002,215.608398 245.865341,215.073822 244.255386,214.927460 
	C240.972046,214.628906 240.473343,213.002823 241.529633,210.298111 
	C244.546249,210.589783 247.667969,215.496841 250.126923,209.326141 
	C253.597244,211.525665 252.170456,213.537216 249.225800,215.676178 
z"/>
<path fill="#330500" opacity="1.000000" stroke="none" 
	d="
M237.082306,219.148682 
	C238.592621,218.891617 240.254868,218.577744 241.498199,219.159363 
	C242.536057,219.644867 243.083176,221.179413 243.847626,222.249374 
	C243.471008,222.519135 243.094406,222.788895 242.717789,223.058640 
	C241.059830,222.358109 239.401871,221.657593 237.342468,220.880157 
	C236.978302,220.362061 237.015564,219.920883 237.082306,219.148682 
z"/>
<path fill="#BCBCBC" opacity="1.000000" stroke="none" 
	d="
M263.067291,349.846497 
	C262.750580,349.408875 262.753571,348.911652 262.756592,348.414398 
	C263.156403,348.769562 263.556213,349.124725 263.968536,349.765900 
	C263.783020,349.963531 263.585022,349.875183 263.067291,349.846497 
z"/>
<path fill="#BCBCBC" opacity="1.000000" stroke="none" 
	d="
M272.230194,338.917786 
	C271.338165,339.249176 270.713562,339.507294 269.800537,339.942841 
	C269.512054,340.120270 269.239990,339.865875 269.239990,339.865875 
	C270.204498,339.257080 271.169006,338.648285 272.583649,338.020416 
	C272.855072,338.282379 272.676361,338.563446 272.230194,338.917786 
z"/>
<path fill="#0B0B0B" opacity="1.000000" stroke="none" 
	d="
M258.750732,263.409546 
	C264.069641,260.767426 268.816101,261.018829 272.834503,265.039856 
	C276.339508,268.547119 277.133362,272.868195 275.127319,277.434631 
	C273.131226,281.978424 269.554871,284.305145 264.496826,284.188507 
	C259.404907,284.071075 255.878571,281.462524 254.274704,276.846771 
	C252.462433,271.631195 253.830048,267.028870 258.750732,263.409546 
z"/>
<path fill="#101010" opacity="1.000000" stroke="none" 
	d="
M233.151199,281.183258 
	C230.025818,287.755676 225.067993,289.808655 219.931183,286.998993 
	C215.536758,284.595367 213.896606,279.041565 216.270340,274.602692 
	C218.270981,270.861542 222.681396,268.953522 226.812393,270.041992 
	C231.302399,271.225037 233.574753,275.047546 233.151199,281.183258 
z"/>
<path fill="#141414" opacity="1.000000" stroke="none" 
	d="
M241.539383,290.873962 
	C241.686005,288.925598 242.257858,286.990906 242.829712,285.056152 
	C244.229889,285.525574 245.840591,285.708801 246.973190,286.541962 
	C248.194168,287.440155 248.967529,288.946777 250.482224,290.887604 
	C247.076645,290.887604 244.520615,290.887604 241.539383,290.873962 
z"/>
<path fill="#070707" opacity="1.000000" stroke="none" 
	d="
M249.961761,338.942749 
	C253.083771,338.942749 256.205780,338.942749 259.826355,338.942749 
	C259.066864,353.877594 258.321655,368.531738 257.556580,383.576843 
	C255.722412,383.663177 254.168991,383.736328 251.943817,383.841064 
	C251.241302,368.971252 250.554901,354.442566 249.933838,339.454559 
	C249.999146,338.995270 249.961761,338.942749 249.961761,338.942749 
z"/>
<path fill="#0E0E0E" opacity="1.000000" stroke="none" 
	d="
M269.421387,340.282928 
	C272.072418,354.519012 274.814148,368.592468 277.555878,382.665894 
	C276.942902,382.825470 276.329956,382.985046 275.717010,383.144592 
	C271.732880,368.620026 267.748749,354.095428 263.561646,338.830841 
	C265.659485,338.960327 267.214783,339.056305 269.005066,339.509094 
	C269.239990,339.865875 269.512054,340.120270 269.421387,340.282928 
z"/>
<path fill="#101010" opacity="1.000000" stroke="none" 
	d="
M246.007111,338.996735 
	C244.619675,345.297852 243.371948,351.633881 241.807861,357.890839 
	C240.035461,364.981079 237.999496,372.006012 236.030380,379.045990 
	C235.624603,380.496735 235.008423,381.888611 234.489182,383.307617 
	C234.025604,383.174255 233.562012,383.040894 233.098419,382.907532 
	C233.809906,378.989319 234.467789,375.060486 235.243484,371.155029 
	C237.154251,361.534912 239.191483,351.939270 241.013565,342.302704 
	C241.494278,339.760345 242.350388,338.262634 245.593231,338.923706 
	C246.000000,339.000000 246.007111,338.996735 246.007111,338.996735 
z"/>
<path fill="#0C0C0C" opacity="1.000000" stroke="none" 
	d="
M256.033936,412.795685 
	C255.862183,414.443085 255.704086,415.636932 255.545975,416.830780 
	C255.116272,416.833710 254.686569,416.836639 254.256866,416.839569 
	C253.659500,407.794739 253.062149,398.749908 252.433884,389.237091 
	C253.917023,389.077881 255.283539,388.931213 257.261017,388.718964 
	C256.841522,396.885406 256.444550,404.613770 256.033936,412.795685 
z"/>
<path fill="#BCBCBC" opacity="1.000000" stroke="none" 
	d="
M231.895126,391.097717 
	C231.860886,390.164612 231.826660,389.231476 231.792435,388.298370 
	C232.360748,388.397064 232.929062,388.495728 233.497375,388.594421 
	C233.139053,389.207123 232.780746,389.819855 232.202774,390.726532 
	C231.983124,391.020477 231.895126,391.097717 231.895126,391.097717 
z"/>
<path fill="#BCBCBC" opacity="1.000000" stroke="none" 
	d="
M232.068207,393.046356 
	C231.953979,394.122345 231.839767,395.198334 231.725555,396.274323 
	C231.308456,396.222473 230.891342,396.170593 230.474228,396.118713 
	C230.739044,395.103699 231.003860,394.088715 231.630539,393.031067 
	C231.992416,392.988403 232.068192,393.046356 232.068207,393.046356 
z"/>
<path fill="#BCBCBC" opacity="1.000000" stroke="none" 
	d="
M278.807739,390.185822 
	C279.111206,390.742767 279.113251,391.235809 279.115295,391.728851 
	C278.568878,391.583679 278.022461,391.438507 277.476044,391.293335 
	C277.819458,390.902863 278.162872,390.512390 278.807739,390.185822 
z"/>
<path fill="#BCBCBC" opacity="1.000000" stroke="none" 
	d="
M254.342529,428.049988 
	C255.013474,428.305023 255.643280,428.853485 256.273102,429.401947 
	C255.974121,429.675171 255.675156,429.948395 255.376190,430.221619 
	C255.017929,429.595551 254.659653,428.969482 254.342529,428.049988 
z"/>
<path fill="#BCBCBC" opacity="1.000000" stroke="none" 
	d="
M229.596466,398.545441 
	C230.141724,398.894440 230.473679,399.423798 230.805649,399.953156 
	C230.557953,400.045868 230.113266,400.250885 230.092392,400.214294 
	C229.820969,399.738098 229.609650,399.227631 229.596466,398.545441 
z"/>
<path fill="#BCBCBC" opacity="1.000000" stroke="none" 
	d="
M280.569946,402.417603 
	C280.604126,401.739380 280.830383,401.237915 281.114166,400.771515 
	C281.135071,400.737122 281.570801,400.955048 281.813690,401.055664 
	C281.467865,401.571411 281.122070,402.087219 280.569946,402.417603 
z"/>
<path fill="#BCBCBC" opacity="1.000000" stroke="none" 
	d="
M246.002533,338.996338 
	C247.184433,338.805420 248.363800,338.618195 249.752472,338.686890 
	C249.961761,338.942749 249.999146,338.995270 249.968643,338.984741 
	C248.889893,338.983673 247.841629,338.993103 246.400238,338.999634 
	C246.007111,338.996735 246.000000,339.000000 246.002533,338.996338 
z"/>
<path fill="#BCBCBC" opacity="1.000000" stroke="none" 
	d="
M227.885864,409.698334 
	C227.593628,409.780579 227.209595,409.691071 227.122650,409.479462 
	C227.054062,409.312592 227.351227,408.995422 227.485962,408.744995 
	C227.631363,408.987976 227.776749,409.230957 227.885864,409.698334 
z"/>
<path fill="#BCBCBC" opacity="1.000000" stroke="none" 
	d="
M231.956802,392.956665 
	C231.930557,392.518219 231.939941,392.111511 231.922226,391.401245 
	C231.895126,391.097717 231.983124,391.020477 232.029755,390.984680 
	C232.218643,391.541656 232.360931,392.134399 232.285706,392.886780 
	C232.068192,393.046356 231.992416,392.988403 231.956802,392.956665 
z"/>
<path fill="#BCBCBC" opacity="1.000000" stroke="none" 
	d="
M283.398010,410.716644 
	C283.558929,410.843750 283.582428,411.064270 283.605927,411.284790 
	C283.490784,411.126556 283.375671,410.968323 283.398010,410.716644 
z"/>
<path fill="#BCBCBC" opacity="1.000000" stroke="none" 
	d="
M261.551727,338.466919 
	C261.586700,338.523682 261.516754,338.410187 261.551727,338.466919 
z"/>
<path fill="#540800" opacity="1.000000" stroke="none" 
	d="
M369.016174,154.971436 
	C367.223907,154.971436 365.431641,154.971436 362.817688,154.971436 
	C364.445251,141.398376 366.021271,128.255280 367.597260,115.112190 
	C367.902832,115.123436 368.208435,115.134682 368.514008,115.145927 
	C369.682220,123.166199 370.850403,131.186478 371.628601,139.792633 
	C370.497742,145.242813 369.756958,150.107132 369.016174,154.971436 
z"/>
<path fill="#0F0100" opacity="1.000000" stroke="none" 
	d="
M369.434448,155.039703 
	C369.756958,150.107132 370.497742,145.242813 371.584686,140.215332 
	C372.568329,144.716080 373.205872,149.379990 373.936554,154.725479 
	C372.496857,154.860336 371.174774,154.984161 369.434448,155.039703 
z"/>
</svg>